<svg width="301" height="300" viewBox="0 0 301 300" fill="none" xmlns="http://www.w3.org/2000/svg">
<path d="M124.887 105.665C124.887 98.1402 130.149 91.641 137.509 90.0761L281.17 59.5307C291.084 57.4228 300.421 64.9834 300.421 75.1192V240.251C300.421 247.448 295.598 253.752 288.651 255.633L144.99 294.547C134.858 297.292 124.887 289.662 124.887 279.165V105.665Z" fill="white"/>
<path d="M114.832 101.645C114.832 95.568 111.376 90.0196 105.921 87.3405L22.9622 46.5977C12.3728 41.3969 -0.000111639 49.1049 -0.000111639 60.9025V222.509C-0.000111639 228.192 3.02603 233.445 7.94218 236.296L90.9005 284.402C101.525 290.563 114.832 282.897 114.832 270.615V101.645Z" fill="#D8CAC5"/>
<path d="M25.1755 36.5076C19.0292 33.489 20.4058 24.3553 27.1688 23.2823L168.7 0.828585C172.124 0.285347 175.63 0.632493 178.882 1.83662L276.96 38.1618C283.556 40.6049 282.852 50.1546 275.969 51.6047L128.347 82.7057C124.218 83.5755 119.917 83.0375 116.13 81.1776L25.1755 36.5076Z" fill="#ACCEE2"/>
<path d="M183.396 174.341C182.251 174.626 181.372 174.34 180.758 173.481C180.145 172.622 180.084 171.563 180.574 170.302L197.813 123.58C198.427 121.952 199.429 120.964 200.819 120.617C202.291 120.25 203.293 120.738 203.825 122.081L221.125 160.318C221.575 161.386 221.493 162.482 220.88 163.604C220.307 164.674 219.428 165.357 218.242 165.653C217.628 165.806 217.035 165.785 216.463 165.59C215.931 165.344 215.543 164.935 215.297 164.364L200.083 129.21L201.801 128.782L186.341 171.583C186.055 172.329 185.625 172.942 185.053 173.422C184.521 173.892 183.969 174.198 183.396 174.341ZM186.648 162.655L189.102 156.606L213.15 150.61L215.604 155.436L186.648 162.655ZM235.918 161.246C235.018 161.47 234.261 161.342 233.648 160.863C233.034 160.384 232.727 159.681 232.727 158.753V115.95C232.727 114.98 233.034 114.124 233.648 113.381C234.261 112.596 235.018 112.091 235.918 111.866C236.858 111.632 237.615 111.759 238.187 112.249C238.801 112.686 239.108 113.389 239.108 114.359V157.163C239.108 158.09 238.801 158.946 238.187 159.731C237.615 160.506 236.858 161.011 235.918 161.246ZM149.135 248.883C148.235 249.107 147.478 248.98 146.865 248.501C146.251 248.021 145.945 247.318 145.945 246.391V203.587C145.945 202.617 146.251 201.761 146.865 201.018C147.478 200.233 148.235 199.728 149.135 199.504L163.797 195.848C166.578 195.155 169.011 195.117 171.097 195.735C173.224 196.301 174.88 197.426 176.066 199.112C177.293 200.787 177.907 202.91 177.907 205.481C177.907 207.546 177.355 209.56 176.25 211.521C175.187 213.43 173.715 215.104 171.833 216.542C174.533 216.544 176.7 217.331 178.336 218.904C179.972 220.477 180.79 222.866 180.79 226.069C180.79 228.978 180.115 231.717 178.766 234.287C177.457 236.848 175.616 239.077 173.244 240.975C170.872 242.831 168.153 244.141 165.085 244.906L149.135 248.883ZM152.325 242.018L165.085 238.836C166.966 238.367 168.623 237.617 170.054 236.586C171.486 235.555 172.61 234.284 173.428 232.773C174.246 231.262 174.655 229.538 174.655 227.599C174.655 225.786 174.246 224.392 173.428 223.416C172.61 222.439 171.486 221.835 170.054 221.601C168.623 221.326 166.966 221.423 165.085 221.892L152.325 225.073V242.018ZM152.325 219.004L163.797 216.144C166.128 215.562 168.03 214.498 169.502 212.951C171.015 211.393 171.772 209.413 171.772 207.011C171.772 204.608 171.015 203.026 169.502 202.266C168.03 201.453 166.128 201.337 163.797 201.918L152.325 204.778V219.004ZM213.067 233.575C209.468 234.473 206.175 234.682 203.19 234.204C200.204 233.684 197.627 232.577 195.46 230.884C193.333 229.138 191.677 226.874 190.491 224.093C189.305 221.27 188.712 218.003 188.712 214.294C188.712 210.585 189.305 207.044 190.491 203.671C191.677 200.299 193.333 197.23 195.46 194.466C197.627 191.649 200.204 189.258 203.19 187.291C206.175 185.282 209.468 183.829 213.067 182.932C216.666 182.034 219.937 181.851 222.882 182.381C225.868 182.859 228.444 183.966 230.612 185.701C232.78 187.395 234.456 189.632 235.642 192.414C236.829 195.195 237.422 198.44 237.422 202.149C237.422 205.859 236.829 209.421 235.642 212.836C234.456 216.208 232.78 219.303 230.612 222.119C228.444 224.894 225.868 227.286 222.882 229.294C219.937 231.251 216.666 232.678 213.067 233.575ZM213.067 227.632C215.725 226.969 218.158 225.878 220.367 224.358C222.616 222.785 224.559 220.931 226.195 218.795C227.831 216.617 229.078 214.24 229.937 211.666C230.837 209.081 231.287 206.419 231.287 203.679C231.287 200.939 230.837 198.501 229.937 196.365C229.078 194.219 227.831 192.486 226.195 191.165C224.559 189.803 222.616 188.917 220.367 188.509C218.158 188.09 215.725 188.212 213.067 188.875C210.408 189.538 207.954 190.634 205.705 192.164C203.496 193.685 201.574 195.534 199.938 197.712C198.343 199.838 197.096 202.193 196.196 204.778C195.296 207.363 194.846 210.025 194.846 212.765C194.846 215.504 195.296 217.942 196.196 220.078C197.096 222.214 198.343 223.969 199.938 225.341C201.574 226.662 203.496 227.552 205.705 228.013C207.954 228.422 210.408 228.295 213.067 227.632ZM246.615 224.578C245.674 224.813 244.959 224.696 244.468 224.229C243.977 223.719 243.732 223.063 243.732 222.262C243.732 221.419 243.977 220.6 244.468 219.803L259.927 194.705L262.688 191.487L276.798 168.622C277.371 167.847 278.127 167.342 279.068 167.108C279.927 166.894 280.602 166.999 281.092 167.425C281.583 167.851 281.849 168.459 281.89 169.249C281.931 170.04 281.706 170.876 281.215 171.757L266.308 195.959L263.67 199.019L248.824 223.079C248.21 223.865 247.474 224.364 246.615 224.578ZM278.7 216.579C278.168 216.711 277.698 216.744 277.289 216.678C276.921 216.559 276.573 216.329 276.246 215.989L261.952 199.131L259.682 197.737L245.265 180.72C244.775 180.168 244.57 179.482 244.652 178.66C244.734 177.839 245.02 177.072 245.511 176.36C246.042 175.637 246.738 175.169 247.597 174.955C248.66 174.689 249.417 174.817 249.866 175.337L263.486 191.415L265.817 192.794L280.97 210.702C281.46 211.254 281.685 211.957 281.644 212.81C281.604 213.663 281.317 214.451 280.786 215.174C280.295 215.886 279.6 216.354 278.7 216.579Z" fill="black"/>
</svg>
